<svg width="24" height="24" viewBox="0 0 24 24" fill="none" xmlns="http://www.w3.org/2000/svg">
    <path fill-rule="evenodd" clip-rule="evenodd" d="M14.1107 1.0062C13.5618 0.945223 13.0674 1.34077 13.0064 1.88968C12.9454 2.43858 13.341 2.93299 13.8899 2.99397C15.6937 3.19436 17.3757 4.00213 18.6599 5.28465C19.944 6.56717 20.7539 8.2482 20.9565 10.0518C21.0182 10.6006 21.5131 10.9955 22.062 10.9338C22.6108 10.8722 23.0057 10.3773 22.944 9.82842C22.6907 7.57399 21.6784 5.47269 20.0732 3.86954C18.468 2.2664 16.3655 1.25669 14.1107 1.0062ZM14.1918 5.01859C13.6497 4.91284 13.1246 5.26653 13.0188 5.80859C12.913 6.35066 13.2667 6.87582 13.8088 6.98158C14.5902 7.13403 15.3083 7.51619 15.8713 8.07913C16.4342 8.64207 16.8163 9.36019 16.9688 10.1416C17.0746 10.6836 17.5997 11.0373 18.1418 10.9316C18.6839 10.8258 19.0375 10.3007 18.9318 9.75859C18.7031 8.58651 18.1299 7.50933 17.2855 6.66492C16.4411 5.8205 15.3639 5.24727 14.1918 5.01859ZM17.9074 13.9127C18.0846 13.9559 18.2655 14 18.4401 14C19.1239 14.1226 19.744 14.4788 20.1944 15.0077C20.6449 15.5365 20.8979 16.2054 20.9101 16.9V19.9C20.9121 20.3244 20.8239 20.7444 20.6516 21.1323C20.4792 21.5202 20.2265 21.867 19.9101 22.15C19.3595 22.6405 18.6475 22.9111 17.9101 22.91H17.5301C13.3388 22.3925 9.43938 20.4934 6.44775 17.5126C3.45613 14.5319 1.54284 10.6394 1.0101 6.44999C0.95118 6.02305 0.984942 5.58842 1.10909 5.1757C1.23324 4.76298 1.44485 4.38186 1.72953 4.05827C2.01421 3.73469 2.36527 3.47624 2.75881 3.30052C3.15235 3.1248 3.57913 3.03594 4.0101 3.03999H7.0101C7.7248 3.0296 8.41972 3.27473 8.96972 3.73123C9.51973 4.18773 9.88867 4.82561 10.0101 5.52999C10.0401 5.75999 10.0801 5.98999 10.1301 6.20999C10.231 6.65479 10.3613 7.09241 10.5201 7.51999C10.6889 7.9839 10.6801 8.49384 10.4955 8.95168C10.3109 9.40952 9.96347 9.78291 9.5201 9.99999L9.1001 10.28C9.64192 11.254 10.3149 12.149 11.1001 12.94C11.8911 13.7252 12.7861 14.3982 13.7601 14.94L13.9801 14.49C14.1972 14.0466 14.5706 13.6992 15.0284 13.5146C15.4862 13.33 15.9962 13.3212 16.4601 13.49C16.8868 13.6515 17.3246 13.7818 17.7701 13.88C17.8155 13.8903 17.8613 13.9015 17.9074 13.9127ZM18.8509 20.4116C18.9095 20.2823 18.9399 20.142 18.9401 20L18.9201 16.88C18.9253 16.6474 18.8492 16.4204 18.705 16.2378C18.5608 16.0553 18.3575 15.9288 18.1301 15.88C17.8568 15.84 17.5868 15.79 17.3201 15.73C16.7847 15.6085 16.2571 15.4549 15.7401 15.27L15.1201 16.67C15.0643 16.7901 14.9851 16.8979 14.8873 16.9872C14.7894 17.0764 14.6748 17.1454 14.5501 17.19C14.3066 17.29 14.0336 17.29 13.7901 17.19C10.7073 15.7508 8.2293 13.2727 6.7901 10.19C6.73464 10.0705 6.70332 9.9413 6.69795 9.80971C6.69257 9.67812 6.71324 9.54677 6.75877 9.42319C6.8043 9.2996 6.87379 9.18624 6.96326 9.08959C7.05272 8.99294 7.1604 8.91491 7.2801 8.85999L8.6801 8.20999C8.48936 7.70517 8.33562 7.18713 8.2201 6.65999C8.1601 6.39332 8.1101 6.12332 8.0701 5.84999C8.02131 5.62256 7.89476 5.41925 7.71224 5.27506C7.52972 5.13087 7.30265 5.05482 7.0701 5.05999H4.0701C3.92812 5.06017 3.7878 5.09058 3.65848 5.14921C3.52916 5.20783 3.41381 5.29332 3.3201 5.39999C3.22517 5.51268 3.15407 5.64344 3.1111 5.78438C3.06813 5.92532 3.05419 6.07351 3.0701 6.21999C3.53251 9.96733 5.2293 13.4541 7.89282 16.1303C10.5563 18.8065 14.035 20.5198 17.7801 21C17.9267 21.0177 18.0753 21.0046 18.2165 20.9616C18.3577 20.9185 18.4884 20.8465 18.6001 20.75C18.7068 20.6563 18.7923 20.5409 18.8509 20.4116Z" fill="#854DFF"/>
</svg>